<?xml version="1.0" standalone="no"?>
<!DOCTYPE svg PUBLIC "-//W3C//DTD SVG 20010904//EN"
 "http://www.w3.org/TR/2001/REC-SVG-20010904/DTD/svg10.dtd">
<svg version="1.0" xmlns="http://www.w3.org/2000/svg"
 width="1666.000000pt" height="930.000000pt" viewBox="0 0 1666.000000 930.000000"
 preserveAspectRatio="xMidYMid meet">
<metadata>
Created by potrace 1.16, written by Peter Selinger 2001-2019
</metadata>
<g transform="translate(0.000000,930.000000) scale(0.100000,-0.100000)"
fill="#000000" stroke="none">
<path d="M7560 9283 c-142 -6 -496 -34 -675 -54 -2702 -301 -4804 -1636 -5215
-3311 -56 -230 -65 -309 -65 -603 0 -236 3 -286 23 -395 57 -315 134 -543 282
-827 l68 -132 -124 -41 c-68 -23 -124 -43 -124 -44 0 -1 11 -29 24 -62 82
-203 178 -501 262 -813 l44 -165 -38 -45 c-64 -79 -285 -294 -388 -377 -54
-44 -139 -106 -189 -138 -111 -73 -129 -89 -50 -46 212 117 379 250 587 468
l77 81 10 -37 c116 -436 185 -986 180 -1437 -1 -82 2 -158 6 -168 14 -34 53
-31 224 17 413 115 717 141 905 78 61 -21 64 -18 50 36 -14 51 -140 87 -299
85 -149 -1 -306 -35 -580 -123 -179 -58 -223 -69 -242 -61 -13 6 -23 16 -24
23 0 7 -2 146 -4 308 -7 771 -130 1527 -360 2210 -25 74 -45 136 -45 137 0 4
240 77 460 140 1818 520 3801 765 5995 740 1698 -20 3155 -168 4710 -478 596
-119 1642 -376 1652 -406 2 -6 -16 -80 -41 -165 -137 -468 -229 -963 -281
-1523 -19 -206 -35 -498 -35 -650 -1 -169 -13 -263 -38 -287 -34 -35 -105 -25
-320 41 -232 73 -330 91 -482 91 -120 0 -202 -14 -283 -49 -45 -19 -47 -22
-47 -60 l0 -39 39 19 c67 32 132 42 271 42 195 0 395 -34 675 -113 150 -43
172 -46 195 -25 19 17 20 32 20 214 1 475 64 969 181 1403 l10 37 64 -69 c194
-212 426 -395 635 -500 38 -19 24 -8 -85 65 -55 37 -143 102 -195 143 -96 77
-374 349 -404 394 -15 24 -14 34 19 178 65 282 199 731 259 871 6 14 -16 24
-139 64 -97 30 -145 50 -142 58 88 203 131 327 171 487 157 638 65 1285 -269
1890 -263 476 -695 939 -1229 1318 -61 43 -118 82 -126 86 -22 11 38 -41 82
-71 37 -25 43 -51 9 -38 -12 5 -13 4 -4 -6 9 -9 16 -9 26 -1 10 9 24 3 60 -27
25 -21 43 -41 40 -45 -4 -3 1 -6 11 -6 11 0 15 -5 10 -12 -4 -7 -4 -10 1 -6 9
9 45 -9 45 -23 0 -11 -53 0 -58 13 -2 4 -11 8 -20 8 -15 0 -15 -2 -2 -10 18
-12 12 -13 -134 -18 -27 -1 -46 -5 -43 -9 4 -3 72 -7 151 -8 118 -1 146 -4
160 -17 10 -10 12 -19 6 -23 -5 -3 -10 -1 -10 6 0 7 -8 5 -20 -6 -30 -27 -26
-49 7 -40 15 3 30 11 34 16 6 11 69 -20 69 -34 0 -4 -10 -12 -22 -17 -14 -5
-17 -9 -8 -9 9 -1 21 4 28 11 8 8 23 -1 59 -38 73 -74 78 -81 63 -99 -8 -9
-21 -13 -36 -9 -15 4 -24 2 -24 -5 0 -6 3 -10 8 -10 4 1 14 1 22 0 12 -1 12
-4 -3 -12 -9 -5 -21 -8 -26 -4 -5 3 -12 2 -14 -3 -3 -4 -75 -7 -161 -6 -86 0
-156 -3 -156 -8 0 -4 7 -8 16 -8 8 0 13 -3 11 -7 -3 -5 62 -8 144 -8 82 0 149
-3 149 -7 0 -5 -6 -8 -12 -9 -7 0 -92 -2 -188 -5 -278 -8 -225 -19 78 -16 152
2 282 3 287 3 35 -2 59 -9 63 -19 6 -18 -48 -15 -54 3 -5 13 -8 13 -21 0 -11
-11 -38 -15 -111 -14 -131 2 -157 0 -148 -8 3 -4 85 -7 182 -8 141 -1 177 -4
185 -16 5 -7 9 -9 9 -4 0 6 5 2 11 -9 7 -11 8 -21 2 -25 -18 -11 -24 -44 -11
-53 10 -7 10 -8 -2 -7 -42 4 -38 -5 5 -11 29 -4 55 -3 62 3 9 6 19 2 32 -14
25 -31 16 -46 -11 -17 -13 16 -18 18 -15 6 4 -10 -2 -18 -16 -22 -21 -6 -21
-7 -4 -17 11 -6 32 -9 48 -5 40 8 66 -19 59 -63 -1 -12 1 -13 13 -2 13 10 18
9 27 -9 11 -21 11 -22 -30 -15 -30 5 -41 4 -36 -4 5 -7 -4 -11 -23 -11 -17 0
-31 -4 -31 -10 0 -5 9 -10 21 -10 15 0 19 -5 15 -15 -7 -18 -2 -19 25 -2 17
10 23 10 26 0 3 -7 14 -13 26 -13 11 0 17 -3 14 -7 -4 -3 -2 -12 4 -20 20 -23
-18 -16 -40 8 -19 20 -21 20 -36 5 -12 -12 -21 -14 -29 -6 -7 5 -16 7 -20 3
-4 -4 -23 -6 -42 -5 -33 3 -35 1 -29 -20 12 -39 11 -42 -25 -49 l-35 -6 40 -4
c22 -1 57 -3 77 -4 43 -1 59 -12 38 -25 -13 -8 -12 -10 2 -10 9 0 18 5 20 11
2 6 9 0 16 -15 11 -25 10 -26 -16 -26 -15 0 -38 7 -50 16 -20 14 -22 14 -22
-5 0 -10 6 -21 13 -24 9 -3 9 -7 -2 -20 -12 -15 -11 -17 8 -17 11 0 21 -4 21
-9 0 -5 -17 -8 -37 -6 -21 1 -30 1 -20 -2 9 -2 15 -8 12 -12 -2 -5 14 -5 37
-1 22 4 55 4 72 -1 17 -5 56 -9 86 -9 31 0 61 -5 68 -12 9 -9 12 -9 12 -1 0 7
16 11 40 10 28 -1 39 -5 35 -14 -15 -36 -14 -45 1 -19 l17 30 17 -35 c18 -33
18 -34 -1 -37 -24 -4 -25 -20 -1 -30 13 -5 8 -8 -17 -12 -19 -3 -36 -11 -39
-18 -2 -7 2 -10 12 -6 10 4 16 1 16 -9 0 -8 -7 -17 -15 -21 -11 -4 -14 -13 -9
-33 l7 -28 -25 28 c-31 33 -37 34 -33 2 1 -14 -3 -25 -8 -25 -7 0 -8 -3 -1
-10 9 -9 105 -22 152 -21 27 1 28 -10 2 -26 -12 -8 -21 -9 -25 -3 -3 6 -22 9
-41 7 -34 -2 -45 -12 -21 -20 6 -2 -8 -4 -33 -4 -25 -1 -51 4 -58 10 -7 5 -15
7 -19 3 -3 -3 -1 -6 5 -6 7 0 12 -4 12 -9 0 -4 -11 -6 -25 -3 -15 2 -25 0 -25
-7 0 -12 4 -13 60 -17 261 -19 278 -29 51 -33 -74 -1 -138 -4 -143 -7 -8 -5
-230 -5 -481 -1 -49 1 -91 -1 -94 -5 -4 -8 12 -12 31 -9 4 1 14 -3 22 -10 7
-6 17 -8 22 -5 5 3 65 7 134 10 99 4 130 2 144 -9 18 -14 18 -14 -1 -16 -11
-1 -26 -1 -32 0 -7 1 -13 -3 -13 -8 0 -6 19 -10 43 -10 63 1 107 -12 107 -32
0 -5 -16 -9 -36 -9 -21 0 -33 -4 -29 -10 3 -5 26 -10 51 -10 40 0 44 -2 30
-15 -8 -8 -26 -15 -40 -15 -14 0 -26 -4 -26 -10 0 -12 13 -12 63 -1 25 6 50 6
68 -1 21 -7 43 -7 72 0 22 6 46 7 52 3 5 -4 50 -7 98 -5 49 1 86 0 84 -2 -17
-18 -197 -31 -197 -15 0 6 -4 11 -10 11 -5 0 -10 -9 -10 -19 0 -13 9 -21 30
-26 31 -7 42 -25 15 -25 -8 0 -15 -9 -15 -21 0 -19 -5 -20 -82 -18 -55 1 -83
-2 -86 -9 -2 -7 2 -10 10 -7 7 3 22 -1 33 -9 19 -15 19 -15 -10 -16 -33 0 -73
-19 -45 -21 8 0 40 0 71 1 32 1 60 -3 64 -10 4 -7 24 -8 54 -4 31 4 51 2 55
-5 4 -6 17 -11 29 -11 16 0 23 -6 23 -19 0 -16 -8 -19 -61 -19 -59 -1 -211 -7
-270 -11 l-30 -3 29 -8 c15 -5 70 -10 121 -12 71 -2 98 -7 115 -20 24 -19 21
-33 -10 -41 -12 -3 -24 1 -29 11 -8 14 -12 15 -22 5 -7 -7 -38 -13 -69 -13
-30 0 -64 -6 -75 -13 -12 -7 -41 -11 -70 -10 -126 7 -240 4 -229 -7 5 -5 69
-10 142 -11 72 0 135 -5 138 -10 3 -5 -23 -9 -58 -10 -48 -1 -57 -3 -36 -9 14
-4 32 -12 40 -16 7 -5 70 -9 140 -10 104 -2 131 -6 145 -19 21 -22 4 -34 -52
-36 -22 -1 -32 -3 -22 -6 20 -5 22 -14 5 -31 -9 -9 15 -12 109 -12 71 0 124
-4 128 -10 4 -6 -13 -10 -43 -10 -27 0 -52 -3 -55 -7 -4 -3 -50 -6 -102 -4
-66 1 -95 -2 -95 -10 0 -7 9 -9 21 -6 24 6 49 -1 49 -14 0 -5 -14 -9 -32 -9
-50 0 -20 -18 41 -24 30 -4 57 -10 60 -15 4 -4 16 -13 29 -20 12 -7 20 -16 17
-22 -10 -15 -62 -10 -69 7 -5 14 -7 14 -22 0 -8 -9 -32 -17 -52 -18 -20 -1
-46 -2 -57 -3 -11 -1 -35 -3 -54 -4 -67 -2 -23 -10 90 -16 62 -4 119 -11 124
-17 7 -7 1 -9 -20 -4 -27 6 -28 5 -12 -8 33 -25 -15 -36 -175 -38 -85 -1 -118
-5 -118 -14 0 -8 -13 -10 -42 -7 -24 3 -40 3 -36 -1 3 -4 37 -11 75 -15 l68
-8 -59 -2 c-47 -1 -56 -4 -47 -14 6 -9 7 -17 1 -23 -6 -6 5 -8 30 -6 22 2 40
9 40 16 0 6 5 4 10 -4 5 -8 24 -15 42 -16 103 -3 118 -5 118 -14 0 -5 -13 -10
-30 -10 -16 0 -30 -4 -30 -10 0 -5 7 -10 16 -10 8 0 22 -6 29 -12 33 -30 45
-38 54 -38 5 0 9 -9 8 -19 0 -11 -4 -18 -7 -16 -4 2 -19 -4 -35 -15 l-28 -18
39 -11 c21 -6 45 -11 52 -11 6 0 12 -4 12 -10 0 -5 -9 -10 -19 -10 -11 0 -23
-4 -26 -10 -3 -5 -25 -10 -48 -10 -23 0 -49 -5 -57 -11 -12 -8 -9 -9 12 -5 15
3 39 1 53 -4 23 -9 25 -13 14 -26 -7 -8 -22 -13 -33 -11 -12 3 -30 2 -41 -3
-16 -6 -12 -9 23 -14 50 -9 47 -26 -5 -26 -54 0 -33 -11 24 -12 26 -1 53 -5
60 -10 6 -5 20 -9 30 -8 10 1 33 2 51 1 l33 -1 -22 -31 c-22 -31 -22 -32 -4
-45 10 -8 23 -14 28 -14 4 0 5 -4 2 -10 -3 -5 3 -20 14 -31 22 -24 33 -14 28
26 -2 18 4 20 60 20 35 0 63 -3 63 -6 0 -9 -41 -21 -62 -20 -9 1 -18 -2 -21
-6 -3 -4 16 -9 41 -11 26 -1 52 -9 58 -17 6 -8 14 -12 17 -9 3 3 10 -3 16 -14
9 -16 7 -24 -7 -38 -16 -17 -16 -17 5 -12 14 4 20 2 17 -7 -3 -6 2 -18 11 -25
8 -7 15 -17 15 -23 0 -5 -9 -2 -19 7 -13 11 -27 15 -40 11 -27 -8 -27 -25 -1
-25 11 0 20 -5 20 -11 0 -6 -7 -8 -16 -5 -9 4 -22 2 -28 -2 -6 -5 -19 -12 -30
-16 -14 -5 -17 -2 -12 9 3 8 1 15 -3 15 -5 0 -11 -5 -13 -10 -3 -11 -22 -13
-67 -8 -13 2 -26 -3 -29 -11 -3 -9 1 -11 16 -7 13 4 24 2 29 -8 4 -8 19 -16
33 -18 17 -2 25 -9 24 -21 -1 -13 3 -16 16 -12 9 3 29 1 43 -4 27 -10 55 7 39
24 -4 5 -2 5 5 2 13 -8 5 -48 -11 -59 -6 -4 -56 -8 -110 -8 -97 0 -127 -7 -53
-12 20 -1 37 -6 37 -10 0 -4 7 -8 15 -8 8 0 15 -7 15 -15 0 -19 8 -19 42 -1
26 14 38 12 38 -6 0 -5 -4 -6 -10 -3 -5 3 -10 0 -10 -7 0 -10 -37 -13 -171
-15 -94 -1 -173 -3 -175 -6 -10 -9 20 -57 35 -57 15 0 73 -39 60 -40 -4 0 -22
7 -42 15 -19 8 -37 12 -41 10 -3 -3 -4 -2 -1 2 8 11 -16 33 -39 34 -17 1 -17
2 -3 6 9 2 17 11 17 19 0 18 -14 18 -30 -1 -7 -8 -23 -15 -37 -15 -13 0 -22
-4 -18 -10 3 -5 -16 -3 -42 5 -295 91 -1112 288 -1625 392 -145 29 -187 41
-186 53 2 30 -2 50 -11 50 -10 0 -27 -39 -23 -52 3 -10 14 -11 -108 12 -573
110 -1386 222 -2005 275 -661 56 -992 70 -1740 70 -658 0 -875 -6 -1365 -40
-1215 -85 -2450 -285 -3585 -583 -295 -77 -393 -100 -400 -94 -3 3 -5 1 -5 -5
0 -6 -24 -17 -52 -23 -29 -7 -111 -30 -183 -52 -71 -21 -137 -40 -145 -42 -8
-2 -22 -6 -30 -9 -8 -3 -63 -20 -121 -38 -117 -35 -161 -34 -152 1 4 14 0 20
-11 20 -11 0 -14 -5 -10 -12 5 -7 3 -8 -6 -3 -10 6 -9 11 4 21 11 8 13 14 7
19 -6 3 -11 2 -11 -3 0 -14 -53 -22 -67 -10 -7 6 -22 8 -33 5 -10 -3 -24 1
-31 9 -9 11 10 13 116 13 70 0 130 3 133 6 3 3 -13 5 -36 5 -22 0 -43 4 -47 9
-8 13 32 34 48 25 8 -5 8 -2 -1 9 -8 9 -21 16 -30 15 -10 -1 -26 0 -37 1 -44
3 10 21 66 21 38 0 61 5 69 15 14 16 8 19 -40 16 -14 -1 -47 -1 -75 -1 -27 1
-85 2 -129 2 -69 1 -76 3 -60 15 10 8 19 21 19 31 0 13 12 19 45 23 l45 6 -42
1 c-44 2 -52 9 -31 30 9 9 7 13 -5 18 -9 3 -17 17 -17 30 0 18 6 24 23 24 20
1 20 2 4 11 -13 8 -22 7 -32 -1 -8 -7 -15 -7 -19 -1 -4 5 -2 12 4 16 6 4 8 11
5 16 -4 5 6 24 20 43 15 19 25 43 23 53 -3 19 -23 21 -23 3 0 -16 -25 -28 -46
-23 -23 6 -25 -12 -2 -21 13 -5 14 -9 4 -19 -10 -9 -15 -8 -25 5 -7 10 -18 18
-25 18 -19 0 -12 15 14 27 14 6 33 9 43 6 12 -3 19 1 19 10 0 8 -7 12 -16 10
-9 -2 -34 0 -56 4 -29 7 -41 14 -42 28 -2 15 -1 16 5 5 11 -23 43 -24 49 -2 3
13 11 18 23 15 10 -3 21 0 24 6 4 5 13 8 21 4 8 -3 15 0 15 6 0 11 -76 17
-152 13 -38 -2 -51 11 -23 22 22 8 18 36 -5 36 -11 0 -20 7 -20 15 0 12 14 15
63 17 34 1 75 1 91 0 28 -2 28 -2 14 20 -8 13 -25 27 -36 33 -31 14 -27 25 6
20 15 -3 36 -7 47 -8 26 -4 61 -24 54 -31 -3 -4 -19 0 -35 8 -33 18 -45 12
-22 -10 13 -13 38 -16 129 -15 117 1 165 14 84 24 -47 5 -100 37 -62 37 9 0
17 5 17 10 0 12 -9 12 -88 0 -42 -7 -68 -7 -80 -1 -16 10 -16 10 1 11 10 0 15
4 12 10 -3 6 -17 10 -31 10 -14 0 -32 7 -40 15 -13 12 -12 15 5 25 11 5 29 10
41 10 12 0 19 4 15 10 -3 5 -13 6 -23 3 -15 -6 -15 -5 2 12 15 16 21 17 38 6
15 -9 23 -10 31 -2 6 6 19 11 30 11 10 0 15 5 12 11 -4 6 -13 8 -20 5 -17 -6
-42 14 -47 38 -2 11 -12 20 -23 21 -106 9 -150 34 -62 36 23 0 51 5 62 10 15
7 12 8 -13 3 -25 -4 -32 -2 -32 11 0 8 7 18 16 22 14 5 13 8 -7 18 l-22 13 21
6 c13 4 19 13 15 22 -4 10 0 12 11 8 9 -4 16 -1 16 6 0 9 19 11 75 8 41 -3 75
-1 75 4 0 7 -68 13 -94 9 -15 -3 -48 11 -41 17 3 4 49 8 102 9 53 1 101 7 106
12 5 5 -10 7 -40 5 -89 -7 -126 12 -86 42 17 12 16 13 -7 13 -14 0 -34 -4 -45
-8 -18 -7 -18 -8 -1 -18 10 -6 17 -15 15 -21 -7 -18 -69 18 -75 44 -3 12 -13
25 -21 28 -12 5 -13 9 -3 21 13 16 7 30 -12 30 -6 0 -13 6 -16 14 -3 10 0 12
12 8 18 -7 46 13 46 34 0 14 61 4 70 -11 7 -12 40 -3 40 11 0 5 26 7 57 5 66
-5 135 3 128 14 -3 5 -47 7 -99 5 -51 -2 -99 0 -106 5 -17 10 -2 33 17 26 8
-3 21 0 28 8 12 12 12 15 -1 20 -9 3 -25 6 -36 6 -21 0 -21 1 -3 20 16 18 26
20 78 14 49 -6 59 -4 55 7 -4 10 -20 13 -66 11 -33 -2 -68 0 -77 5 -15 9 -15
11 -1 26 15 14 14 16 -2 20 -9 3 7 5 36 6 40 1 52 -2 52 -14 0 -8 5 -15 10
-15 6 0 10 4 10 9 0 5 11 12 25 15 63 16 3 26 -153 27 -92 0 -176 4 -187 9
-12 5 49 9 160 10 288 3 335 5 335 13 0 4 -30 8 -67 8 -63 1 -80 3 -93 8 -3 1
-48 4 -100 7 -52 3 -102 10 -111 14 -10 6 -20 5 -27 -2 -9 -9 -12 -7 -12 9 0
12 -8 23 -17 26 -13 2 -7 7 17 15 35 11 35 11 -18 9 -72 -3 -70 20 2 25 30 1
52 0 49 -4 -6 -11 1 -10 31 5 27 15 25 27 -5 27 -30 0 -11 27 21 32 34 5 59
-5 41 -16 -6 -4 -11 -19 -11 -34 0 -25 1 -25 17 -10 15 16 17 16 30 0 11 -14
14 -15 22 -3 8 12 12 12 25 2 8 -7 20 -9 27 -5 8 5 3 12 -15 21 -35 18 -34 50
2 57 35 7 152 1 174 -8 13 -6 15 -3 11 13 -5 18 -14 21 -62 22 -46 1 -51 3
-26 9 28 7 27 8 -12 9 -24 0 -43 -3 -43 -9 0 -5 -18 -10 -40 -10 -22 0 -40 4
-40 10 0 9 -35 7 -79 -6 -17 -5 -22 -4 -17 4 5 8 0 12 -13 12 -12 0 -21 5 -21
10 0 6 9 10 19 10 11 0 22 4 25 9 3 5 33 12 66 16 49 6 66 4 87 -10 25 -17 27
-17 39 0 11 14 24 17 74 13 45 -3 60 -1 60 9 0 7 -12 15 -27 19 -16 3 -36 8
-46 11 -10 3 -28 -3 -39 -14 -19 -17 -20 -17 -17 1 4 17 -3 20 -50 23 -30 1
-59 7 -65 13 -17 17 -44 11 -62 -12 -11 -16 -15 -17 -11 -5 6 15 -1 17 -46 18
-41 1 -47 3 -27 9 40 13 145 11 158 -2 9 -9 12 -9 12 -1 0 7 19 14 43 16 23 2
2 4 -46 5 -64 2 -89 6 -93 16 -6 15 -50 16 -73 2 -10 -7 -12 -6 -6 4 6 10 2
11 -18 6 -19 -4 -25 -3 -22 6 6 15 -6 14 413 16 230 2 293 5 289 15 -2 6 -11
10 -18 8 -8 -2 -97 -3 -199 -2 -130 1 -187 6 -192 14 -6 9 -8 9 -8 0 0 -8 -14
-13 -35 -13 -38 0 -49 14 -12 17 12 1 37 5 55 9 19 3 45 1 62 -6 24 -10 33
-10 45 0 8 6 19 9 25 5 6 -4 17 -2 25 5 14 11 139 10 151 -3 4 -3 15 -2 25 4
11 5 55 8 98 7 79 -3 97 5 41 17 -17 4 -30 10 -30 15 0 5 -12 3 -26 -5 -32
-16 -202 -13 -248 5 -20 7 -31 7 -36 1 -4 -7 -17 -8 -38 -2 -21 7 -30 6 -26 0
4 -6 -28 -10 -88 -9 -126 2 -203 11 -186 21 9 6 6 9 -10 9 -18 0 -20 3 -13 18
5 9 15 32 21 50 12 30 16 32 59 32 26 0 53 -6 60 -12 11 -10 13 -10 7 0 -5 9
10 12 64 12 39 0 69 4 66 8 -3 5 -31 14 -63 21 -32 7 -62 15 -68 16 -5 2 30 4
79 4 93 1 110 12 29 19 -25 2 -64 7 -87 12 -38 7 -39 8 -9 9 25 1 31 5 30 21
-1 12 -8 20 -18 20 -10 0 -26 3 -36 7 -30 12 34 19 102 12 62 -8 114 4 65 15
-34 7 -120 17 -147 18 l-22 0 26 47 c25 43 29 46 61 43 26 -3 33 -1 30 9 -3 8
-11 14 -19 14 -13 0 -15 7 -10 35 0 6 8 10 17 10 9 0 12 5 8 13 -6 9 -4 9 7 1
17 -14 68 -28 89 -25 40 5 60 12 60 22 0 6 -7 9 -15 6 -8 -4 -17 -1 -21 4 -3
6 -27 9 -52 7 -37 -2 -47 0 -50 13 -2 13 4 16 30 15 18 -2 38 0 43 3 14 8 78
10 90 2 6 -3 78 -6 160 -7 238 -1 248 -2 241 -19 -3 -9 0 -15 8 -15 8 0 16 7
20 15 3 8 12 12 21 9 8 -3 15 -1 15 4 0 15 -78 22 -280 26 -96 2 -190 4 -207
5 -18 1 -33 6 -33 12 0 5 12 9 28 8 56 -4 162 1 162 9 0 4 -11 12 -25 19 -14
6 -25 7 -25 2 0 -12 -89 -10 -123 3 -23 9 -25 13 -16 27 6 9 -3 0 -22 -19 -32
-34 -32 -35 -11 -38 35 -5 15 -22 -25 -22 l-36 0 19 23 c11 12 32 41 47 65 15
23 34 42 42 42 8 0 15 5 15 11 0 5 -6 7 -12 3 -7 -4 -3 4 8 17 12 13 32 36 44
51 13 15 28 24 34 21 12 -8 216 -7 223 1 3 3 12 -2 21 -10 10 -11 25 -14 45
-10 16 3 40 6 53 6 15 0 24 6 24 15 0 8 -9 15 -20 15 -11 0 -20 -5 -20 -11 0
-7 -10 -9 -25 -5 -17 4 -25 2 -25 -6 0 -9 -3 -9 -9 2 -12 18 -218 25 -238 8
-23 -19 -27 20 -4 44 12 13 27 32 35 42 12 18 24 21 81 26 11 1 14 4 8 7 -17
6 -16 30 1 36 8 3 24 3 35 0 12 -3 21 -1 21 6 0 6 -7 11 -16 11 -14 0 -14 3
-4 15 11 13 10 14 -4 9 -9 -3 -16 -1 -16 5 0 6 3 12 8 12 21 4 70 7 197 12 77
3 148 9 158 13 9 3 17 1 17 -4 0 -12 58 2 74 18 5 5 21 9 36 9 24 -1 23 -2 -5
-9 -27 -7 -25 -8 18 -9 30 -1 54 4 63 14 8 8 22 11 32 8 14 -6 13 -8 -8 -14
-14 -4 14 -6 62 -4 71 2 86 0 81 -11 -3 -8 1 -14 11 -14 9 0 16 7 16 16 0 11
6 14 21 9 15 -5 19 -4 15 4 -4 6 -1 11 8 11 8 0 18 -4 21 -10 10 -16 35 -12
29 5 -5 13 6 15 67 14 53 -1 67 -3 49 -9 -22 -7 -20 -8 15 -9 27 0 35 2 26 8
-11 7 -10 10 5 14 10 2 -69 5 -176 6 -107 1 -321 4 -474 8 l-279 6 49 46 c214
199 269 245 286 235 7 -4 10 -3 5 1 -10 12 23 45 45 45 11 0 17 4 13 9 -13 22
461 353 660 460 33 18 65 36 70 41 6 4 21 11 35 15 21 7 74 39 90 55 20 20
201 101 211 95 7 -5 10 -4 6 2 -8 13 18 24 37 17 8 -3 12 -12 9 -20 -5 -15 5
-18 31 -8 8 3 12 12 9 21 -4 9 0 14 8 13 36 -5 39 4 4 9 l-40 7 80 38 c131 62
249 108 253 97 2 -5 11 -7 19 -4 12 5 15 2 10 -10 -4 -12 -2 -14 10 -10 14 5
13 9 -6 24 l-22 18 33 14 c18 7 60 24 93 36 33 13 68 27 77 32 49 24 128 47
134 37 4 -7 9 -6 14 2 5 8 9 4 13 -10 4 -16 2 -20 -9 -16 -9 4 -12 2 -8 -5 3
-6 16 -8 27 -5 12 3 26 1 32 -4 13 -11 75 15 75 30 0 5 16 14 35 20 28 9 39 9
51 -1 10 -8 18 -9 25 -2 8 8 0 15 -25 24 -20 7 -36 16 -36 20 0 4 -17 6 -37 3
-29 -3 -33 -2 -18 5 11 5 37 10 58 10 22 1 36 6 35 13 -3 12 31 24 187 67 101
28 159 30 203 9 18 -10 26 -8 39 5 16 16 15 17 -16 28 l-34 12 40 13 c22 8 51
16 64 18 13 3 26 5 29 6 3 1 13 2 23 1 9 -1 17 3 17 9 0 12 31 10 123 -6 23
-4 37 -2 37 4 0 6 -10 12 -22 14 -22 3 -21 4 7 19 45 24 124 39 175 33 25 -2
55 -5 68 -5 12 -1 22 -5 22 -10 0 -10 -40 -22 -57 -17 -12 3 -14 -3 -6 -32 6
-23 23 -27 23 -5 0 22 17 18 23 -6 9 -33 32 -17 32 22 0 34 9 49 33 49 9 0 11
-7 7 -20 -4 -11 -2 -20 4 -20 6 0 11 -4 11 -10 0 -5 -5 -9 -11 -7 -6 1 -14 -4
-17 -12 -3 -11 1 -12 19 -8 13 4 30 7 37 7 7 0 11 4 7 9 -3 6 2 14 11 19 15 8
15 10 0 15 -24 9 -19 27 7 27 16 0 23 6 23 20 0 13 -7 20 -18 20 -10 0 -18 5
-18 10 0 13 4 13 51 -2 22 -6 39 -18 39 -25 0 -22 25 -9 28 15 2 11 13 24 25
28 21 7 22 7 2 15 -16 6 -14 8 13 8 20 1 31 -3 27 -9 -3 -5 -1 -10 6 -10 8 0
9 -3 0 -13 -12 -15 -5 -27 17 -27 8 0 12 6 9 14 -7 16 29 10 53 -9 22 -18 55
-24 73 -14 19 11 36 -9 17 -21 -6 -4 -12 -11 -11 -16 0 -5 -9 -8 -19 -6 -13 2
-20 -2 -20 -14 0 -13 3 -14 13 -5 15 12 27 5 27 -16 0 -8 -6 -13 -12 -12 -26
3 -39 -1 -33 -11 7 -11 88 -14 98 -3 4 3 2 12 -4 19 -6 8 -9 21 -5 29 3 8 0
15 -7 15 -7 0 -8 3 -2 8 6 4 10 13 11 20 3 36 5 42 14 42 6 0 22 -12 35 -27
20 -23 26 -25 34 -14 7 10 5 18 -6 26 -25 19 -8 52 32 59 45 9 88 -2 81 -21
-7 -17 17 -28 41 -19 14 6 15 9 4 15 -9 6 -8 9 7 13 12 3 23 -2 31 -13 6 -11
18 -19 26 -19 11 0 12 -6 6 -22 -11 -31 -2 -68 18 -67 10 0 11 2 3 6 -6 2 -9
10 -5 16 4 7 8 17 8 22 0 6 10 11 23 13 16 2 22 8 18 18 -6 16 3 18 24 4 20
-12 52 17 44 42 -3 11 0 19 8 19 70 7 98 6 98 -4 0 -8 4 -7 9 2 7 11 13 11 32
-3 29 -20 39 -20 39 -1 0 19 14 19 30 1 6 -8 21 -17 33 -19 l22 -4 -22 -9
c-34 -14 -14 -34 26 -26 30 7 32 9 17 21 -22 18 -20 31 4 31 11 0 23 7 26 15
8 20 -13 45 -40 45 -20 1 -20 1 -2 12 15 8 22 7 30 -4 13 -17 54 -33 76 -29
10 2 8 -3 -5 -13 -23 -18 -24 -17 33 -21 29 -1 42 2 42 11 0 7 15 16 33 20 17
4 26 9 20 11 -26 9 -12 23 25 24 32 0 34 1 15 9 -35 14 -27 20 27 20 51 0 69
-15 28 -23 -15 -3 -10 -5 14 -6 20 0 39 -7 41 -13 4 -10 6 -10 6 0 1 17 41 15
63 -5 13 -11 18 -12 18 -3 0 9 10 11 35 7 36 -6 43 1 24 20 -8 8 -8 13 0 17
16 11 13 24 -6 29 -10 3 7 4 37 4 31 0 41 -2 23 -4 -35 -4 -40 -12 -22 -30 8
-8 6 -17 -9 -34 -12 -12 -18 -27 -15 -32 3 -6 10 -1 14 10 8 23 40 35 59 23
17 -11 40 -1 40 16 0 8 10 14 24 14 13 0 27 6 29 13 4 10 6 10 6 0 1 -7 12
-13 26 -13 14 0 28 -6 31 -14 3 -8 12 -17 19 -20 9 -3 12 0 8 10 -3 9 2 14 16
14 12 0 24 -7 27 -15 4 -10 19 -15 48 -14 38 1 38 2 11 8 -16 3 -25 9 -20 12
13 8 234 3 242 -5 4 -3 -5 -6 -18 -6 -20 -1 -21 -2 -7 -10 19 -12 68 -10 85 2
6 5 14 5 18 -2 3 -5 12 -10 18 -10 8 0 7 3 -2 9 -8 5 -11 16 -7 26 6 17 8 17
25 -1 10 -10 17 -22 14 -26 -7 -13 12 -9 25 4 10 10 17 10 33 0 11 -7 24 -10
29 -7 14 9 12 35 -2 35 -6 0 -9 3 -5 6 12 12 47 -8 47 -27 0 -10 4 -19 9 -19
15 0 23 18 11 25 -17 10 -11 25 9 25 19 0 35 -25 26 -39 -2 -5 7 -6 22 -3 21
4 23 6 9 14 -27 15 -18 28 19 28 27 0 35 -4 35 -17 1 -17 1 -17 11 0 6 11 22
17 42 16 43 -1 74 -13 59 -23 -19 -11 -14 -26 9 -26 11 0 17 5 14 10 -3 6 1
10 11 10 13 0 14 -3 4 -15 -17 -20 -5 -33 25 -28 13 3 33 2 42 -2 19 -8 32
-11 76 -13 39 -3 33 -19 -10 -27 -48 -9 -59 -15 -42 -26 25 -16 68 -10 81 11
18 28 31 25 26 -5 -5 -26 -1 -29 26 -19 19 7 21 30 4 38 -10 5 -10 7 0 12 20
9 14 26 -7 19 -28 -9 -34 9 -10 31 21 18 29 14 43 -21 2 -6 9 -5 17 3 11 10
10 12 -3 12 -9 0 -18 9 -21 20 -5 18 -4 19 16 5 12 -8 29 -15 38 -15 24 0 17
-34 -7 -39 -24 -4 -36 -23 -21 -33 7 -4 29 -8 50 -8 20 0 37 -4 37 -10 0 -5
11 -10 25 -10 31 0 33 25 3 35 l-23 8 23 4 c12 2 22 9 22 15 0 6 -12 8 -27 5
-15 -3 -33 -3 -40 0 -18 7 -16 33 2 33 8 0 15 -4 15 -10 0 -5 12 -9 28 -9 17
1 20 3 9 6 -9 2 -15 8 -12 13 3 5 24 2 47 -6 22 -7 62 -14 89 -14 27 0 49 -3
49 -6 0 -19 -41 -33 -92 -34 -32 0 -58 -4 -58 -10 0 -5 13 -10 29 -10 16 0 42
-5 57 -10 19 -8 29 -8 34 0 4 6 29 12 56 13 27 1 52 6 55 11 10 13 39 -1 39
-19 0 -8 -7 -15 -15 -15 -8 0 -15 -4 -15 -10 0 -5 -13 -10 -30 -10 -16 0 -30
-4 -30 -10 0 -5 9 -10 19 -10 22 0 40 -20 19 -21 -7 0 -3 -4 10 -9 34 -14 114
-1 108 17 -4 8 -6 19 -6 24 0 12 -37 12 -45 -1 -4 -6 -11 -7 -17 -4 -7 5 -3
11 11 16 12 4 20 12 17 17 -4 5 19 7 55 4 46 -5 61 -3 58 6 -3 7 -29 14 -64
17 -94 6 -100 34 -7 37 26 1 52 5 57 8 6 4 24 6 40 4 17 -1 44 -3 60 -4 l30
-2 -25 -10 c-14 -6 -38 -8 -54 -5 -23 5 -27 3 -22 -10 3 -9 6 -18 6 -20 0 -2
13 -4 29 -4 45 0 91 -12 85 -21 -3 -5 7 -4 22 1 30 12 59 6 49 -10 -7 -12 22
-26 33 -16 3 4 0 11 -8 16 -11 7 -2 10 30 11 25 1 37 3 28 6 -10 2 -18 9 -18
14 0 23 36 6 50 -24 15 -32 58 -47 52 -18 -3 13 0 13 73 -5 16 -4 15 -1 -5 11
-18 12 -19 15 -5 10 11 -4 44 -11 74 -16 62 -10 83 -24 52 -34 -12 -3 -21 -11
-21 -16 0 -12 13 -12 26 1 18 18 146 14 159 -4 6 -8 20 -13 31 -10 23 6 236
-47 257 -64 7 -7 16 -9 19 -7 7 8 128 -26 128 -36 0 -4 19 -10 43 -14 23 -3
62 -13 87 -20 150 -48 263 -86 320 -108 36 -14 112 -43 170 -66 241 -93 349
-141 620 -275 173 -85 463 -250 455 -258 -3 -2 1 -5 8 -5 7 0 37 -15 67 -34
77 -49 80 -51 80 -45 0 8 -267 182 -395 258 -1062 628 -2434 1009 -3920 1088
-169 9 -797 11 -995 3z"/>
<path d="M7009 8566 c-3 -3 -50 -8 -105 -10 -55 -3 -107 -7 -115 -10 -45 -14
-439 -30 -789 -32 -373 -1 -410 -3 -475 -21 -38 -11 -78 -24 -87 -28 -11 -4
-18 -3 -18 4 0 6 -7 11 -16 11 -13 0 -14 -3 -4 -14 9 -12 5 -18 -27 -35 -45
-23 -114 -89 -153 -146 -96 -139 -91 -364 11 -512 38 -55 128 -122 205 -153
33 -13 65 -28 71 -33 10 -7 13 -168 13 -736 l0 -726 -56 -29 c-148 -78 -234
-223 -234 -397 0 -209 144 -380 390 -464 307 -104 916 -111 1245 -14 162 49
302 144 373 257 90 141 85 354 -11 490 -33 45 -109 108 -167 137 -43 22 -50
31 -50 73 l0 32 108 0 c459 0 877 187 1113 498 87 116 176 314 203 457 17 88
25 265 16 354 -9 84 -35 207 -56 267 -4 10 8 0 27 -23 49 -61 127 -117 209
-149 l70 -27 0 -731 -1 -731 -60 -35 c-83 -47 -169 -141 -198 -216 -34 -88
-39 -203 -12 -292 83 -274 368 -409 906 -428 188 -7 391 5 545 31 252 44 410
123 512 258 76 99 104 207 87 339 -16 128 -85 232 -195 297 -84 49 -94 60 -94
96 l0 32 158 6 c253 9 431 51 638 153 289 141 491 366 590 656 43 129 58 223
57 383 -1 254 -53 431 -188 635 -73 109 -225 250 -340 315 -27 16 -57 34 -65
40 -28 23 -217 94 -315 120 -225 58 -385 65 -750 30 -244 -22 -610 -36 -915
-33 -260 3 -279 2 -353 -20 -108 -31 -171 -65 -238 -129 -66 -62 -111 -148
-130 -241 -11 -59 -8 -163 6 -207 4 -11 -6 3 -22 31 -50 86 -95 146 -171 226
-233 242 -573 379 -980 395 -86 3 -160 3 -163 -1z m324 -111 c348 -46 652
-210 834 -449 140 -185 210 -456 184 -711 -50 -495 -392 -845 -941 -962 -67
-14 -130 -18 -294 -18 l-208 0 4 -105 c6 -136 15 -154 97 -193 171 -81 235
-239 174 -430 -10 -33 -35 -69 -76 -113 -134 -144 -353 -207 -757 -221 -267
-9 -535 18 -683 68 -147 50 -259 136 -307 235 -35 71 -40 198 -10 276 27 73
93 139 185 187 l70 36 3 806 2 805 -58 18 c-97 29 -159 63 -208 113 -71 73
-88 119 -89 238 0 89 3 106 28 156 47 97 136 167 262 206 53 16 91 18 340 15
154 -1 379 2 500 8 206 9 582 37 615 44 41 10 232 4 333 -9z m3178 1 c429 -58
760 -269 922 -592 167 -331 131 -773 -87 -1078 -63 -88 -208 -222 -303 -279
-238 -143 -483 -203 -795 -195 l-158 4 0 -81 c0 -45 7 -105 16 -134 15 -51 17
-53 80 -81 84 -38 156 -110 180 -182 11 -33 18 -83 19 -133 0 -67 -4 -89 -27
-135 -60 -122 -197 -218 -373 -264 -160 -41 -263 -50 -550 -50 -240 1 -297 4
-401 22 -234 41 -368 107 -460 225 -92 120 -81 327 22 431 40 39 103 82 152
101 39 16 41 19 47 68 3 29 5 391 3 805 l-3 753 -85 30 c-199 69 -291 193
-277 375 12 157 113 274 282 327 66 21 85 22 330 19 300 -3 675 12 955 37 245
23 376 24 511 7z"/>
<path d="M6910 7391 l0 -249 36 8 c51 12 79 43 98 109 30 107 15 253 -34 321
-21 29 -67 60 -90 60 -7 0 -10 -82 -10 -249z"/>
<path d="M10090 7389 c0 -225 2 -251 16 -245 9 3 22 6 29 6 33 0 73 50 90 114
38 139 4 302 -74 353 -63 42 -61 48 -61 -228z"/>
<path d="M4475 4124 c-129 -26 -129 -26 -127 -59 6 -70 116 -792 122 -799 12
-12 180 20 198 37 12 13 12 25 -2 88 -56 271 -11 369 172 373 101 2 112 -21
142 -279 14 -118 19 -122 115 -107 115 18 118 20 110 100 -23 251 -43 295
-150 344 -44 20 -65 23 -175 22 -77 -1 -151 -8 -193 -18 -38 -9 -70 -16 -72
-16 -11 0 -35 152 -35 223 0 68 -3 86 -16 91 -17 6 -56 6 -89 0z"/>
<path d="M8619 4090 c-164 -28 -261 -161 -176 -244 28 -28 50 -36 172 -65 304
-71 301 -70 271 -116 -34 -52 -134 -71 -199 -39 -18 8 -52 38 -77 66 -39 43
-52 51 -92 55 -25 3 -62 0 -82 -7 -30 -9 -36 -16 -36 -39 0 -28 30 -63 80 -94
145 -89 530 -78 627 19 31 31 31 83 1 112 -34 31 -61 39 -266 77 -102 20 -192
41 -199 47 -29 24 6 104 62 138 76 47 177 11 191 -68 10 -57 18 -62 104 -62
99 0 110 4 110 42 0 48 -69 110 -153 137 -129 43 -243 57 -338 41z"/>
<path d="M7720 4068 c-49 -14 -100 -54 -143 -112 -61 -83 -50 -96 81 -96 59 0
76 4 92 20 11 11 20 24 20 28 0 16 75 84 109 98 22 10 53 14 81 11 61 -7 90
-41 90 -106 0 -58 -5 -61 -130 -61 -171 0 -337 -43 -380 -98 -46 -58 -11 -132
82 -172 74 -32 237 -40 340 -15 73 17 74 17 111 -5 33 -20 47 -22 104 -17 37
4 69 11 72 16 3 5 4 99 1 209 -5 197 -5 201 -30 227 -35 38 -64 51 -152 69
-86 18 -292 20 -348 4z m317 -294 c22 -58 -59 -133 -169 -153 -86 -17 -132 -5
-136 33 -4 32 18 60 63 84 90 47 229 68 242 36z"/>
<path d="M7011 4062 l-73 -3 6 -112 c3 -62 9 -181 12 -264 4 -102 10 -153 18
-154 6 0 47 0 91 1 101 2 109 8 94 80 -22 105 6 232 64 283 26 22 38 18 55
-16 18 -36 47 -50 94 -44 49 7 67 30 68 83 0 90 -31 124 -113 124 -70 0 -113
-18 -150 -60 -19 -22 -37 -40 -40 -40 -4 0 -7 26 -7 59 0 68 1 68 -119 63z"/>
<path d="M11726 4049 c-19 -15 -26 -30 -26 -53 0 -53 51 -87 133 -89 93 -2
149 52 112 109 -35 54 -166 74 -219 33z"/>
<path d="M9425 4044 c-96 -34 -152 -114 -162 -231 -12 -153 52 -236 215 -278
88 -23 238 -34 311 -24 78 11 182 64 237 120 38 39 39 41 19 55 -15 12 -40 15
-101 12 -75 -3 -83 -5 -118 -35 -116 -102 -256 -108 -311 -13 -47 82 -11 244
68 301 103 74 212 29 251 -104 18 -63 25 -67 134 -67 l72 0 0 39 c0 48 -17
100 -42 127 -74 83 -441 145 -573 98z"/>
<path d="M6385 4031 l-70 -6 1 -35 c5 -169 29 -477 38 -487 14 -15 170 -3 187
14 8 8 8 29 -1 81 -17 96 -7 170 33 229 36 54 64 62 84 24 19 -39 56 -54 101
-41 58 15 74 61 51 143 -13 49 -56 69 -126 61 -73 -9 -99 -22 -137 -72 l-36
-45 0 59 c0 61 -12 85 -39 82 -9 -1 -47 -4 -86 -7z"/>
<path d="M10340 3987 c-41 -13 -171 -142 -164 -162 8 -19 29 -25 116 -32 l77
-6 57 61 c63 68 103 87 171 79 65 -7 95 -40 95 -102 0 -29 -6 -51 -14 -56 -7
-5 -85 -8 -173 -8 -218 1 -322 -27 -350 -94 -28 -68 14 -126 122 -167 71 -28
247 -39 318 -21 42 11 49 9 90 -14 37 -22 53 -26 112 -23 l68 3 13 160 c16
206 12 259 -24 296 -34 35 -104 63 -214 83 -93 18 -247 19 -300 3z m326 -311
c8 -35 -21 -83 -64 -105 -58 -29 -142 -43 -192 -32 -56 12 -66 24 -54 58 18
51 137 100 246 102 53 1 58 -1 64 -23z"/>
<path d="M5937 3970 c-27 -5 -52 -11 -55 -15 -3 -3 3 -47 13 -98 35 -169 22
-257 -47 -319 -63 -57 -166 -63 -218 -13 -47 45 -62 103 -67 268 l-6 148 -36
-5 c-20 -3 -63 -8 -97 -11 -89 -9 -88 -8 -81 -117 7 -116 31 -229 60 -288 17
-35 33 -51 72 -70 46 -23 60 -25 195 -25 137 0 148 1 204 27 59 28 76 29 76 1
0 -13 12 -14 83 -8 108 10 121 17 113 63 -16 91 -25 200 -27 318 -1 71 -3 134
-6 141 -6 15 -97 16 -176 3z"/>
<path d="M11103 3948 c-6 -7 -14 -56 -18 -108 -4 -52 -13 -149 -21 -215 -7
-66 -14 -139 -14 -161 l0 -41 46 -7 c26 -3 70 -6 99 -6 l52 0 5 98 c6 107 27
167 79 223 34 36 72 37 77 2 8 -54 102 -83 141 -44 42 42 34 157 -12 178 -38
18 -129 26 -159 14 -15 -5 -46 -27 -69 -48 l-42 -38 7 45 c4 25 9 52 12 61 7
24 -14 35 -76 43 -30 4 -64 9 -76 12 -11 3 -25 -1 -31 -8z"/>
<path d="M3756 3940 c-127 -15 -187 -30 -249 -63 -169 -89 -251 -332 -180
-531 55 -152 225 -222 480 -196 140 14 195 27 268 59 91 42 221 185 241 265
l7 29 -70 -6 c-73 -7 -133 -24 -133 -37 0 -4 -32 -42 -71 -84 -54 -58 -88 -84
-144 -112 -68 -33 -79 -36 -144 -32 -64 3 -74 7 -106 38 -58 56 -79 125 -79
260 -1 106 1 119 26 166 57 108 123 156 213 157 91 1 163 -54 212 -160 13 -28
31 -54 40 -57 17 -7 127 11 156 26 57 29 -35 218 -129 263 -43 20 -220 28
-338 15z"/>
<path d="M11702 3828 c-7 -7 -12 -35 -12 -64 0 -28 -7 -116 -16 -195 -9 -79
-17 -160 -18 -179 l-1 -35 75 -13 c79 -13 115 -10 123 10 14 38 70 449 61 458
-10 10 -122 30 -169 30 -17 0 -36 -5 -43 -12z"/>
<path d="M12255 3771 c-47 -12 -86 -35 -140 -85 -42 -39 -48 -49 -39 -64 12
-19 88 -42 152 -45 38 -2 47 2 79 37 65 69 158 94 223 61 37 -19 50 -43 50
-92 0 -71 -9 -74 -135 -57 -195 26 -334 18 -391 -24 -32 -23 -47 -72 -34 -106
34 -91 194 -156 387 -156 94 0 104 -2 132 -26 25 -21 45 -27 104 -31 l73 -6
18 109 c40 242 44 276 34 310 -19 69 -127 125 -317 164 -103 21 -145 23 -196
11z m263 -317 c16 -5 22 -14 22 -36 0 -68 -103 -115 -226 -105 -73 5 -96 20
-92 55 4 32 43 61 105 78 51 13 153 18 191 8z"/>
<path d="M9742 3198 c-8 -8 -12 -63 -13 -177 -1 -92 -4 -230 -8 -309 -3 -79
-2 -150 2 -158 5 -10 26 -14 65 -14 104 0 102 -2 102 109 0 182 34 236 148
236 58 0 66 -3 89 -30 25 -29 26 -30 19 -156 -7 -121 -6 -128 13 -138 24 -13
120 -14 140 -2 10 6 15 41 19 128 4 98 2 125 -12 151 -37 71 -151 112 -313
112 l-93 0 0 64 c0 35 5 88 10 117 9 47 8 56 -7 66 -22 17 -145 17 -161 1z"/>
<path d="M6423 3066 c-30 -14 -53 -42 -53 -65 0 -27 45 -51 96 -51 89 0 147
68 89 106 -34 22 -94 27 -132 10z"/>
<path d="M8052 2989 c-97 -12 -174 -84 -192 -179 -11 -57 -2 -108 25 -148 37
-52 153 -86 295 -86 78 -1 104 3 144 22 61 28 136 88 136 109 0 25 -132 14
-162 -14 -60 -55 -153 -76 -212 -48 -36 17 -58 58 -40 75 5 5 86 16 179 25
214 21 235 27 235 66 0 68 -58 129 -147 155 -71 21 -192 31 -261 23z m193 -84
c29 -28 33 -71 8 -79 -10 -2 -62 -7 -115 -11 -93 -7 -98 -6 -98 13 0 48 75
101 143 102 27 0 45 -7 62 -25z"/>
<path d="M9125 2972 c-82 -38 -122 -118 -112 -223 6 -69 26 -102 82 -135 91
-53 290 -71 385 -35 81 31 169 106 148 126 -2 2 -34 5 -71 6 -61 2 -71 -1
-105 -28 -57 -46 -97 -63 -145 -63 -80 0 -126 64 -113 157 17 123 116 194 196
141 30 -20 45 -43 80 -118 5 -11 27 -16 79 -18 68 -3 71 -2 71 20 0 49 -21 97
-51 119 -50 35 -162 61 -289 66 -98 3 -121 1 -155 -15z"/>
<path d="M6846 2924 c-48 -17 -69 -35 -108 -92 -41 -60 -33 -72 47 -72 50 0
69 4 80 18 8 9 31 36 51 59 56 66 140 78 180 25 14 -18 19 -78 7 -85 -5 -3
-57 -10 -116 -16 -228 -25 -332 -93 -272 -178 39 -56 229 -78 342 -40 49 17
53 17 78 1 22 -14 36 -16 83 -8 l57 9 -3 105 c-5 137 -17 218 -38 241 -10 11
-40 26 -67 34 -67 20 -267 19 -321 -1z m258 -219 c17 -44 -50 -105 -137 -125
-67 -15 -97 -5 -97 30 0 34 40 66 115 92 63 22 111 23 119 3z"/>
<path d="M10575 2913 c-105 -38 -148 -93 -148 -190 0 -143 164 -231 414 -221
98 4 112 7 156 34 81 51 116 130 93 215 -19 70 -77 107 -229 145 -134 34 -223
39 -286 17z m281 -72 c64 -39 84 -156 37 -219 -46 -63 -136 -88 -208 -58 -46
20 -68 56 -68 119 -1 65 26 124 72 154 44 29 122 31 167 4z"/>
<path d="M11220 2810 c0 -91 -28 -336 -54 -470 -9 -48 -11 -79 -5 -85 6 -5 41
-10 80 -10 81 0 85 4 94 85 3 30 8 71 11 91 l5 37 47 -15 c27 -9 90 -16 148
-17 97 -1 104 0 170 34 58 29 73 42 92 80 80 155 -78 290 -340 290 l-68 0 0
29 c0 33 -23 41 -121 41 l-59 0 0 -90z m365 -64 c88 -37 84 -195 -6 -244 -33
-18 -174 -10 -198 12 -16 15 -16 23 -3 118 7 57 18 109 24 115 14 18 140 17
183 -1z"/>
<path d="M6422 2880 c-22 -9 -23 -14 -17 -63 4 -28 13 -110 19 -182 l11 -130
60 -3 c100 -5 99 -7 89 204 l-9 179 -65 2 c-36 1 -76 -2 -88 -7z"/>
<path d="M5976 2873 l-49 -4 7 -57 c4 -31 13 -122 21 -201 7 -79 18 -148 23
-153 9 -9 138 4 149 15 2 2 -1 24 -6 48 -18 75 -13 142 12 190 27 50 57 62 72
27 19 -42 107 -40 120 3 11 34 -5 98 -28 114 -47 33 -143 11 -178 -40 -20 -29
-25 -32 -31 -17 -4 9 -7 32 -7 50 -1 35 7 33 -105 25z"/>
<path d="M5445 2810 c-77 -13 -141 -53 -176 -110 -44 -72 -40 -80 37 -80 59 0
68 3 90 28 77 87 103 111 127 117 57 15 105 -13 113 -67 8 -46 1 -50 -145 -72
-128 -20 -230 -65 -245 -108 -15 -43 3 -80 49 -103 56 -28 227 -27 300 2 44
17 54 18 82 6 31 -12 107 -9 132 6 14 9 -14 270 -35 319 -9 22 -25 38 -49 48
-45 18 -200 26 -280 14z m191 -236 c13 -52 -71 -120 -163 -131 -130 -15 -67
97 80 142 63 20 76 18 83 -11z"/>
<path d="M5005 2755 c-5 -3 -98 -18 -205 -35 -107 -17 -203 -33 -212 -36 -11
-3 -18 -15 -18 -29 0 -37 33 -40 192 -16 78 11 144 18 147 15 3 -3 -63 -72
-148 -153 -164 -156 -170 -166 -119 -204 l27 -20 98 21 c54 12 161 31 238 42
149 22 166 31 149 74 -8 20 -51 21 -195 0 -61 -8 -117 -14 -125 -12 -8 2 32
45 93 100 235 210 247 225 204 248 -19 9 -105 13 -126 5z"/>
<path d="M12065 2745 c-111 -39 -177 -190 -127 -285 38 -70 240 -147 366 -138
91 6 242 81 207 102 -6 4 -38 9 -73 12 -55 6 -69 3 -112 -20 -89 -47 -199 -30
-227 35 -22 55 -19 55 294 33 42 -3 91 -2 108 1 31 7 31 8 27 55 -10 100 -80
156 -252 200 -92 23 -155 25 -211 5z m256 -95 c20 -19 29 -38 27 -52 -2 -19
-10 -24 -48 -26 -74 -6 -190 8 -190 22 0 38 76 85 138 86 35 0 49 -6 73 -30z"/>
<path d="M13172 2733 c-21 -8 -34 -51 -21 -75 22 -40 111 -60 163 -36 49 22
42 74 -14 103 -28 14 -101 19 -128 8z"/>
<path d="M3633 2680 c-31 -18 -38 -34 -33 -70 5 -41 84 -53 147 -23 54 25 66
80 22 103 -30 17 -102 11 -136 -10z"/>
<path d="M12667 2673 c-4 -3 -7 -20 -7 -37 0 -17 -13 -104 -29 -194 -33 -188
-36 -178 67 -188 56 -6 59 -5 65 17 4 13 7 40 7 59 0 60 19 109 59 150 21 22
43 40 49 40 6 0 19 -17 29 -37 16 -34 23 -38 60 -41 50 -4 64 15 65 82 1 54
-4 63 -50 76 -62 17 -100 12 -138 -16 -19 -15 -37 -25 -40 -22 -2 3 0 24 5 47
10 47 12 45 -59 60 -53 12 -74 13 -83 4z"/>
<path d="M4379 2666 c-2 -2 -96 -20 -209 -40 -236 -42 -253 -47 -248 -79 4
-31 50 -33 192 -8 63 12 125 21 138 21 18 0 -9 -32 -131 -154 -104 -104 -152
-159 -149 -171 1 -10 15 -27 31 -38 27 -21 29 -21 90 -5 34 9 118 26 187 38
243 40 254 45 230 91 -13 24 -30 24 -186 -2 -69 -11 -130 -19 -136 -17 -5 2
21 32 59 68 268 253 282 270 227 290 -25 10 -87 14 -95 6z"/>
<path d="M3120 2613 c-164 -28 -314 -66 -333 -83 -5 -4 5 -48 21 -96 31 -89
112 -422 112 -456 0 -10 7 -21 15 -24 22 -9 166 28 173 44 3 8 -2 51 -11 96
-9 45 -12 85 -7 90 5 4 56 21 115 37 159 44 287 112 326 175 53 86 1 169 -131
208 -51 15 -215 20 -280 9z m167 -102 c39 -25 51 -67 28 -111 -28 -54 -157
-120 -236 -120 -26 0 -28 4 -44 78 -9 42 -19 86 -21 98 -6 25 8 37 66 57 65
23 167 22 207 -2z"/>
<path d="M13130 2532 c0 -22 -20 -147 -53 -326 -4 -21 132 -51 150 -33 9 10
83 349 77 358 -6 10 -97 29 -139 29 -32 0 -35 -3 -35 -28z"/>
<path d="M3678 2508 c-21 -6 -38 -16 -38 -22 0 -7 14 -80 30 -161 17 -81 30
-159 30 -172 0 -20 5 -23 43 -23 23 0 59 5 80 11 44 12 44 7 17 184 -33 218
-24 195 -78 194 -26 -1 -64 -6 -84 -11z"/>
<path d="M13515 2466 c-44 -20 -110 -81 -102 -93 9 -15 93 -43 127 -43 15 0
38 11 51 24 61 60 151 75 194 31 28 -27 33 -71 11 -100 -12 -17 -18 -17 -74
-6 -179 35 -294 31 -339 -11 -87 -82 86 -208 286 -208 52 0 69 -4 87 -21 21
-20 77 -38 119 -39 19 0 25 16 54 149 35 159 35 187 -2 222 -81 77 -329 134
-412 95z m245 -246 c23 -15 1 -62 -40 -83 -49 -25 -175 -20 -196 8 -19 25 0
54 47 71 40 15 168 18 189 4z"/>
<path d="M7495 2074 c-38 -2 -180 -8 -315 -14 -251 -11 -750 -42 -965 -59 -66
-6 -181 -15 -255 -21 -185 -14 -793 -70 -1480 -135 -316 -30 -685 -64 -820
-76 -135 -11 -246 -22 -248 -23 -1 -2 1 -30 4 -64 5 -41 11 -62 20 -62 7 0
110 14 229 30 443 62 1013 130 1083 130 20 0 110 -29 211 -69 816 -319 1682
-506 2726 -588 310 -24 1065 -24 1400 0 992 72 1873 260 2698 578 l178 68 127
-14 c214 -25 585 -74 833 -111 130 -18 242 -34 248 -34 7 0 11 25 11 70 l0 70
-32 0 c-18 0 -127 7 -243 15 -501 35 -852 64 -1699 140 -1578 141 -2014 166
-2946 169 -382 2 -726 2 -765 0z m408 -111 c53 -3 97 -10 97 -15 0 -4 -7 -8
-16 -8 -14 0 -14 -3 -4 -15 10 -13 9 -15 -9 -15 -11 0 -21 6 -21 14 0 9 -19
15 -57 20 -59 7 -80 -1 -70 -28 5 -12 16 -14 52 -9 25 3 45 2 45 -3 0 -5 13
-10 30 -10 43 -2 60 -11 54 -29 -4 -10 0 -15 12 -16 11 -1 -6 -5 -36 -9 -30
-5 -57 -5 -60 -1 -9 14 -50 32 -50 22 0 -5 -19 -9 -42 -7 -24 2 -53 4 -66 4
-13 1 -21 6 -18 11 3 5 15 7 25 4 10 -3 22 0 25 6 6 10 -22 17 -48 12 -5 -1
-16 1 -24 4 -13 5 -12 8 3 19 17 12 16 14 -10 20 -31 8 -59 -9 -32 -19 9 -4
13 -13 10 -21 -3 -8 1 -14 11 -14 9 0 16 -4 16 -10 0 -5 -16 -10 -35 -10 -44
0 -46 -20 -2 -21 21 -1 25 -3 12 -6 -11 -3 -25 -9 -31 -14 -13 -11 -75 -5
-100 9 -12 6 -13 11 -5 16 7 4 18 3 25 -3 9 -8 18 -7 32 4 19 14 19 14 -1 15
-16 0 -17 2 -5 9 8 6 27 7 42 4 18 -4 28 -1 28 7 0 7 -15 11 -42 10 -68 -3
-76 -2 -58 10 8 5 25 10 38 10 12 0 22 4 22 9 0 5 -23 9 -50 9 -38 1 -55 -4
-69 -19 -11 -12 -27 -19 -38 -17 -10 2 -26 -6 -36 -17 -12 -14 -16 -15 -15 -5
2 10 -4 14 -16 12 -18 -3 -63 34 -53 44 3 3 34 8 69 10 82 6 110 12 103 24 -7
12 217 13 368 3z m-735 -29 c36 1 38 -14 4 -29 -12 -5 -22 -13 -22 -17 0 -11
-58 -10 -80 2 -28 15 -119 18 -113 4 6 -17 -44 -23 -64 -8 -25 18 -34 17 -26
-3 6 -16 5 -16 -10 -5 -13 11 -23 11 -53 2 -25 -9 -39 -9 -47 -1 -13 13 15 26
39 17 8 -3 12 -2 9 4 -3 6 -15 10 -25 10 -10 0 -22 5 -25 10 -4 6 6 10 24 10
16 0 33 -5 36 -10 4 -7 12 -7 25 0 30 16 50 12 50 -11 0 -12 5 -19 13 -16 6 2
11 13 9 24 -3 19 2 20 63 17 36 -2 64 0 61 4 -3 5 18 5 47 1 29 -3 67 -6 85
-5z m-492 -19 c-3 -9 0 -15 8 -15 8 0 16 4 18 9 5 16 32 17 33 1 1 -25 -88
-40 -132 -23 -15 6 -13 9 12 14 l30 7 -28 1 c-16 0 -38 -4 -49 -10 -15 -8 -19
-8 -14 0 8 13 4 14 -18 5 -9 -3 -16 -12 -16 -20 0 -8 -10 -14 -23 -14 -12 0
-33 -7 -45 -16 -17 -11 -22 -12 -20 -2 3 13 -60 21 -96 11 -15 -4 -16 -7 -5
-15 9 -6 -4 -7 -41 -3 -130 15 -142 15 -128 -2 11 -14 9 -15 -21 -8 -23 5 -31
4 -27 -4 5 -7 -1 -10 -16 -10 -13 1 -27 1 -33 -1 -20 -5 -36 0 -30 10 3 6 -3
10 -14 10 -12 0 -20 -5 -18 -12 2 -14 -61 -12 -78 2 -5 4 -36 4 -69 -1 -42 -7
-62 -6 -72 2 -8 6 -22 13 -32 14 -9 1 -25 5 -35 9 -24 11 -33 0 -17 -19 11
-13 9 -15 -14 -15 -14 0 -26 4 -26 9 0 15 -32 22 -45 11 -9 -8 -14 -7 -18 2
-3 9 -9 8 -19 -6 -8 -10 -19 -16 -25 -13 -5 3 -27 2 -48 -3 -27 -6 -44 -5 -54
3 -8 7 -16 11 -18 10 -6 -5 -76 -3 -71 2 2 3 31 7 64 9 32 2 131 11 219 19 88
9 219 18 290 21 72 3 141 8 155 11 20 4 21 4 5 -3 -12 -6 15 -9 75 -9 52 0 83
2 68 4 -43 7 -33 23 15 24 248 6 331 10 335 14 3 3 25 5 50 5 35 0 43 -3 38
-15z"/>
<path d="M10 1831 c0 -5 64 -74 143 -153 211 -215 371 -326 553 -387 116 -39
212 -51 395 -51 l149 0 15 36 c8 20 15 38 15 39 0 2 -98 5 -217 8 -255 5 -318
18 -478 97 -128 63 -249 154 -400 302 -94 93 -126 118 -147 118 -16 0 -28 -4
-28 -9z"/>
<path d="M16430 1721 c-140 -142 -263 -235 -395 -301 -159 -79 -222 -92 -477
-97 -120 -3 -218 -8 -218 -11 0 -3 5 -21 12 -39 l12 -33 159 0 c244 0 357 23
522 106 50 24 131 75 180 111 85 63 385 354 385 374 0 5 -15 8 -32 8 -28 -2
-51 -20 -148 -118z"/>
<path d="M3427 1095 c-10 -41 -61 -93 -116 -119 -41 -19 -63 -21 -201 -20
-125 1 -181 6 -289 27 -221 44 -473 36 -706 -23 -227 -57 -421 -151 -785 -380
-279 -176 -326 -204 -504 -295 -149 -77 -162 -86 -192 -133 l-33 -51 32 14
c170 71 364 177 624 342 454 287 669 389 931 442 218 45 460 45 677 0 84 -18
145 -23 255 -23 133 -1 149 1 192 23 83 41 135 124 126 199 l-4 27 -7 -30z"/>
<path d="M13181 1095 c-2 -86 56 -170 137 -202 77 -30 289 -25 472 11 138 27
154 28 345 23 289 -8 451 -47 712 -172 145 -69 214 -109 493 -285 231 -146
393 -239 535 -305 134 -63 149 -69 139 -52 -47 76 -67 92 -222 172 -168 86
-272 148 -527 310 -488 310 -739 401 -1135 412 -174 5 -194 4 -330 -23 -118
-23 -173 -28 -295 -29 -132 0 -156 3 -195 21 -54 25 -100 71 -117 116 l-11 33
-1 -30z"/>
</g>
</svg>
