<?xml version="1.0" standalone="no"?>
<!DOCTYPE svg PUBLIC "-//W3C//DTD SVG 20010904//EN"
 "http://www.w3.org/TR/2001/REC-SVG-20010904/DTD/svg10.dtd">
<svg version="1.0" xmlns="http://www.w3.org/2000/svg"
 width="301.000000pt" height="168.000000pt" viewBox="0 0 301.000000 168.000000"
 preserveAspectRatio="xMidYMid meet">

<g transform="translate(0.000000,168.000000) scale(0.100000,-0.100000)"
fill="#000000" stroke="none">
<path d="M1186 1655 c-378 -54 -687 -225 -821 -452 -24 -41 -49 -98 -56 -125
-18 -77 -7 -219 24 -300 18 -48 22 -68 14 -73 -17 -8 18 0 173 40 330 84 584
109 1025 102 310 -6 438 -16 658 -51 117 -19 312 -61 381 -81 56 -17 78 -19
57 -6 -11 7 -10 18 5 62 26 78 25 236 -3 305 -23 60 -101 179 -141 217 -24 23
-30 24 -51 13 -20 -11 -21 -14 -7 -19 10 -4 19 -1 23 9 5 13 8 13 24 -2 15
-14 17 -19 7 -26 -10 -6 -10 -8 -1 -8 7 0 10 -7 7 -17 -5 -15 -4 -15 5 -3 5 8
13 11 17 7 4 -4 0 -15 -9 -25 -15 -17 -15 -18 10 -20 35 -3 43 -12 12 -13 -21
-1 -21 -2 5 -8 21 -4 32 -14 37 -34 6 -24 5 -26 -7 -16 -12 9 -13 9 -9 -3 4
-9 -4 -18 -22 -25 -28 -11 -28 -11 -5 -18 12 -4 22 -11 22 -15 0 -5 6 -10 13
-13 6 -2 5 -3 -4 -2 -9 1 -23 -1 -30 -6 -11 -7 -9 -9 7 -9 33 0 24 -26 -10
-28 -41 -3 -47 -12 -8 -12 18 0 32 -4 32 -10 0 -5 10 -11 23 -11 15 -1 10 -4
-13 -9 -19 -4 -27 -8 -17 -9 31 -2 13 -26 -24 -32 -19 -4 -25 -7 -14 -8 19 -1
52 -51 34 -51 -25 0 -4 -21 31 -31 46 -14 46 -15 23 -42 -10 -12 -12 -17 -4
-12 9 5 12 3 9 -6 -10 -29 -75 -27 -221 7 -451 106 -891 136 -1302 89 -162
-18 -435 -71 -582 -113 -56 -16 -107 -26 -114 -22 -8 6 -8 9 2 13 10 4 8 8 -7
12 -15 5 -20 12 -17 26 3 11 0 19 -6 19 -7 0 -9 5 -6 10 3 6 1 10 -4 10 -6 0
-11 7 -11 15 0 9 9 15 25 15 27 0 28 4 15 35 -8 19 -9 19 -9 -2 -1 -13 -6 -23
-12 -23 -6 0 -8 12 -6 29 6 39 16 53 29 45 8 -5 9 -1 5 10 -4 10 -8 27 -8 39
-1 17 -3 15 -9 -8 l-8 -30 -1 32 c0 17 5 34 12 37 9 5 9 7 0 12 -18 8 -16 25
2 18 8 -4 15 -1 15 4 0 6 -8 13 -18 15 -10 3 -5 5 13 7 17 1 24 4 18 7 -20 8
-15 21 10 26 16 3 13 5 -10 6 -18 0 -33 6 -33 12 0 5 4 8 9 5 10 -6 25 24 16
32 -3 3 -5 -1 -5 -8 0 -7 -3 -11 -6 -8 -8 9 27 59 37 52 5 -3 9 0 9 6 0 6 4 9
9 5 5 -3 12 -1 16 4 3 6 -4 8 -15 6 -19 -4 -17 0 10 35 18 22 35 41 38 41 4 1
19 2 34 3 15 1 31 6 35 10 4 5 4 7 -2 4 -5 -3 -19 -2 -29 1 -46 17 252 207
355 228 19 3 43 12 54 18 35 21 147 47 177 41 15 -3 28 -1 28 4 0 14 34 12 49
-2 11 -11 13 -10 9 2 -5 13 6 16 61 19 36 1 81 5 99 9 27 6 166 1 341 -11 25
-2 47 -9 49 -15 2 -7 8 -12 13 -12 4 0 6 7 2 16 -5 15 -1 16 33 9 21 -4 41
-10 44 -13 3 -4 28 -8 55 -9 43 -2 46 0 25 8 -114 48 -533 73 -734 44z m501
-21 c-3 -3 -12 -4 -19 -1 -8 3 -5 6 6 6 11 1 17 -2 13 -5z m857 -412 c3 -5 -1
-9 -9 -9 -8 0 -12 4 -9 9 3 4 7 8 9 8 2 0 6 -4 9 -8z"/>
<path d="M1965 1590 c11 -5 27 -9 35 -9 9 0 8 4 -5 9 -11 5 -27 9 -35 9 -9 0
-8 -4 5 -9z"/>
<path d="M1107 1541 c-125 -6 -129 -7 -153 -34 -31 -37 -31 -81 1 -112 13 -14
29 -25 35 -25 6 0 10 -45 10 -127 0 -121 -1 -128 -24 -152 -38 -41 -42 -73
-12 -108 58 -69 270 -73 332 -6 32 34 31 77 -1 109 -31 31 -31 34 -2 34 13 0
48 7 78 16 102 30 170 130 155 226 l-6 39 25 -17 c25 -16 25 -19 25 -145 0
-123 -1 -129 -25 -153 -51 -51 -21 -122 61 -145 22 -6 68 -11 104 -11 102 1
173 34 182 85 6 31 -15 80 -38 90 -14 5 0 11 51 21 126 24 195 99 195 212 0
91 -49 159 -137 192 -48 18 -69 19 -221 14 -182 -7 -214 -16 -231 -65 -5 -15
-9 -29 -8 -31 1 -2 -11 10 -27 25 -73 70 -126 80 -369 68z m254 -21 c96 -27
154 -106 145 -198 -9 -103 -82 -169 -196 -179 -51 -5 -60 -9 -60 -25 0 -11 11
-29 26 -40 19 -15 24 -28 22 -51 -5 -45 -41 -67 -125 -74 -127 -10 -194 12
-208 69 -6 22 -1 33 23 55 l31 28 -1 137 0 137 -34 20 c-27 16 -34 27 -34 50
0 33 20 58 53 66 12 3 67 6 122 8 55 2 123 4 150 5 28 1 66 -3 86 -8z m585 -5
c49 -14 99 -56 123 -102 15 -30 14 -117 -3 -157 -28 -66 -116 -116 -205 -116
-52 0 -55 -23 -10 -63 26 -22 30 -32 24 -54 -13 -54 -80 -77 -198 -71 -92 6
-130 27 -135 75 -2 23 3 36 22 51 26 20 26 21 26 165 0 145 0 145 -24 151 -34
8 -52 61 -31 93 19 29 36 32 165 36 58 1 126 4 151 5 25 1 68 -5 95 -13z"/>
<path d="M1250 1335 c0 -49 14 -60 24 -20 6 23 -7 65 -19 65 -3 0 -5 -20 -5
-45z"/>
<path d="M1820 1334 c0 -32 4 -44 13 -42 15 6 21 32 13 64 -10 40 -26 27 -26
-22z"/>
<path d="M418 933 c7 -3 16 -2 19 1 4 3 -2 6 -13 5 -11 0 -14 -3 -6 -6z"/>
<path d="M794 688 c3 -29 6 -63 6 -75 0 -16 6 -23 19 -23 16 0 20 8 23 43 3
37 6 42 28 42 21 0 26 -5 28 -32 2 -25 8 -33 23 -33 14 0 19 7 19 29 0 38 -22
55 -70 53 -36 -2 -40 0 -40 23 0 19 -5 25 -21 25 -20 0 -21 -4 -15 -52z"/>
<path d="M1379 720 c-21 -16 -21 -19 -6 -20 10 0 28 7 41 15 20 14 25 14 35 1
10 -12 5 -16 -34 -22 -48 -7 -69 -29 -44 -45 8 -4 38 -8 66 -7 l53 2 0 37 c0
28 -5 41 -19 49 -30 16 -66 12 -92 -10z m60 -61 c-19 -12 -39 -11 -39 1 0 15
44 30 49 18 2 -6 -3 -14 -10 -19z"/>
<path d="M1532 728 c-22 -22 -12 -36 34 -47 34 -9 44 -15 36 -23 -11 -11 -24
-8 -54 14 -9 7 -21 9 -25 4 -14 -13 29 -36 68 -36 21 0 42 7 49 15 16 19 14
20 -34 31 -22 5 -41 14 -43 20 -6 18 25 24 41 9 8 -8 23 -15 33 -15 16 1 15 3
-6 20 -26 22 -81 26 -99 8z"/>
<path d="M2122 733 c-6 -3 -10 -9 -6 -14 7 -12 44 -12 44 0 0 11 -21 19 -38
14z"/>
<path d="M1140 703 c0 -70 36 -104 42 -40 2 27 7 31 26 29 14 -2 22 2 22 12 0
21 -18 30 -35 16 -9 -7 -15 -8 -20 0 -13 21 -35 10 -35 -17z"/>
<path d="M1254 713 c3 -8 6 -28 6 -44 0 -38 27 -39 32 -1 2 21 8 27 26 25 16
-2 22 2 22 16 0 16 -7 19 -46 19 -36 0 -44 -3 -40 -15z"/>
<path d="M1679 709 c-17 -33 2 -65 44 -73 37 -7 87 7 87 24 0 13 -27 13 -35 0
-3 -5 -17 -10 -31 -10 -20 0 -24 5 -24 30 0 40 27 51 51 22 20 -25 39 -29 39
-7 0 21 -32 35 -79 35 -31 0 -43 -5 -52 -21z"/>
<path d="M1069 713 c-1 -5 0 -20 1 -34 1 -29 -22 -54 -44 -46 -7 3 -17 22 -20
42 -5 27 -11 35 -24 33 -17 -4 -18 -14 -7 -65 5 -21 10 -23 70 -21 71 2 72 3
59 67 -6 27 -32 45 -35 24z"/>
<path d="M1850 705 c-10 -12 -10 -15 0 -15 9 0 8 -6 -4 -19 -22 -25 -6 -37 61
-44 40 -5 53 -3 57 9 12 31 6 63 -13 74 -29 15 -87 12 -101 -5z m80 -10 c0
-10 -10 -15 -31 -15 -27 0 -30 2 -19 15 7 8 21 15 31 15 11 0 19 -7 19 -15z
m-2 -37 c-5 -15 -58 -24 -58 -9 0 11 17 19 43 20 11 1 17 -4 15 -11z"/>
<path d="M622 690 c-26 -25 -30 -81 -6 -104 10 -10 33 -16 65 -16 41 0 55 5
77 27 24 24 25 28 9 31 -10 2 -25 -5 -35 -16 -24 -29 -56 -36 -72 -17 -20 24
-17 75 5 91 25 18 31 18 54 -7 26 -28 52 -22 40 9 -7 19 -16 22 -62 22 -40 0
-59 -5 -75 -20z"/>
<path d="M2000 665 c0 -33 4 -45 15 -45 8 0 15 8 15 19 0 23 25 47 35 31 8
-14 25 -3 25 17 0 11 -7 14 -25 11 -14 -3 -25 -1 -25 3 0 5 -9 9 -20 9 -17 0
-20 -7 -20 -45z"/>
<path d="M2646 653 c-23 -71 -46 -214 -53 -331 l-6 -104 -36 6 c-86 15 -153
18 -163 8 -7 -7 1 -9 28 -5 22 2 68 -2 104 -10 35 -9 68 -13 72 -11 5 3 8 35
8 72 0 78 23 225 52 335 23 86 19 115 -6 40z"/>
<path d="M330 686 c0 -4 9 -40 19 -79 30 -109 51 -222 53 -280 1 -46 2 -47 5
-13 8 75 -41 344 -67 370 -6 6 -10 6 -10 2z"/>
<path d="M2110 645 c0 -49 23 -64 34 -22 12 44 7 67 -14 67 -17 0 -20 -7 -20
-45z"/>
<path d="M2190 665 c-10 -13 -9 -15 12 -15 13 0 29 5 35 11 12 12 33 4 33 -12
0 -5 -20 -9 -44 -9 -25 0 -48 -5 -52 -11 -10 -17 17 -37 56 -42 19 -3 43 -8
53 -12 12 -5 17 -2 17 8 0 8 3 28 6 44 5 24 2 31 -21 41 -36 16 -80 15 -95 -3z
m70 -56 c0 -5 -11 -9 -25 -9 -28 0 -34 16 -7 23 20 4 32 -1 32 -14z"/>
<path d="M1760 520 c0 -47 3 -60 15 -60 10 0 15 10 15 30 0 23 4 30 20 30 16
0 20 -7 20 -30 0 -21 5 -30 16 -30 11 0 14 8 12 33 -3 28 -7 32 -35 35 -27 3
-33 7 -33 28 0 15 -6 24 -15 24 -12 0 -15 -13 -15 -60z"/>
<path d="M1155 550 c-8 -13 15 -24 27 -12 6 6 4 11 -6 15 -8 3 -18 2 -21 -3z"/>
<path d="M1430 525 c-32 -39 28 -78 79 -50 25 14 24 15 -19 9 -33 -4 -41 -3
-30 5 8 6 27 11 43 11 29 0 34 9 15 28 -17 17 -73 15 -88 -3z m60 -5 c0 -5 -9
-10 -21 -10 -11 0 -17 5 -14 10 3 6 13 10 21 10 8 0 14 -4 14 -10z"/>
<path d="M1643 533 c-20 -7 -15 -51 6 -63 28 -14 54 -12 77 6 18 15 18 15 -6
9 -47 -12 -55 -10 -58 13 -4 29 26 42 43 19 13 -18 35 -23 35 -7 0 22 -63 37
-97 23z"/>
<path d="M1220 516 c-10 -13 -10 -16 3 -16 9 0 19 5 22 10 7 12 35 13 35 2 0
-4 -14 -12 -32 -17 -54 -17 -47 -35 15 -35 l54 0 -6 33 c-6 28 -11 32 -42 35
-23 2 -40 -3 -49 -12z m60 -36 c0 -5 -9 -10 -21 -10 -11 0 -17 5 -14 10 3 6
13 10 21 10 8 0 14 -4 14 -10z"/>
<path d="M1896 514 c-21 -21 -20 -30 6 -48 42 -30 98 -18 98 20 0 40 -73 59
-104 28z m69 -25 c0 -17 -6 -24 -20 -24 -23 0 -33 34 -13 46 20 13 33 5 33
-22z"/>
<path d="M1074 488 c3 -17 6 -35 6 -40 0 -15 25 -3 26 13 2 34 5 38 19 33 9
-4 15 0 15 9 0 11 -11 15 -36 15 -35 0 -36 -1 -30 -30z"/>
<path d="M1160 485 c0 -24 5 -35 15 -35 10 0 15 11 15 35 0 24 -5 35 -15 35
-10 0 -15 -11 -15 -35z"/>
<path d="M2026 483 c-9 -58 -7 -73 9 -73 8 0 15 7 15 15 0 10 10 15 34 15 37
0 60 19 50 43 -6 17 -15 21 -70 32 -30 6 -32 4 -38 -32z m72 -11 c3 -16 -2
-22 -17 -22 -24 0 -33 13 -25 35 9 23 38 14 42 -13z"/>
<path d="M963 498 c-12 -17 -14 -56 -3 -63 5 -3 27 -3 49 1 42 7 50 20 35 58
-7 19 -67 22 -81 4z m57 -8 c0 -5 -4 -10 -9 -10 -5 0 -18 -3 -28 -7 -16 -6
-16 -5 -4 10 15 19 41 23 41 7z m0 -29 c0 -11 -31 -24 -39 -16 -3 3 1 10 9 15
19 12 30 12 30 1z"/>
<path d="M863 493 c-18 -2 -33 -9 -33 -14 0 -5 12 -6 28 -3 l27 7 -28 -31
c-16 -16 -25 -32 -20 -34 15 -8 93 4 93 14 0 6 -13 8 -32 4 l-33 -6 33 28 c18
15 32 30 32 35 0 7 -8 7 -67 0z"/>
<path d="M2174 492 c-23 -15 -23 -41 -1 -57 25 -17 55 -19 77 -4 11 7 5 8 -22
3 -25 -4 -38 -2 -38 5 0 6 16 11 35 11 42 0 47 21 10 38 -30 14 -46 15 -61 4z
m53 -28 c-3 -4 -14 -3 -24 0 -15 6 -15 8 -3 16 16 10 39 -4 27 -16z"/>
<path d="M2386 493 c-11 -11 -6 -23 9 -23 8 0 15 4 15 9 0 13 -16 22 -24 14z"/>
<path d="M655 481 c-6 -11 9 -23 19 -14 9 9 7 23 -3 23 -6 0 -12 -4 -16 -9z"/>
<path d="M735 470 l-30 -8 34 -1 35 -1 -27 -28 c-15 -15 -27 -31 -27 -34 0 -6
91 9 98 17 3 3 -10 5 -29 5 l-34 1 28 22 c15 13 27 26 27 30 0 9 -35 7 -75 -3z"/>
<path d="M2286 464 c-11 -28 -6 -54 9 -54 8 0 15 9 15 21 0 16 4 19 20 14 15
-5 20 -2 20 10 0 12 -6 16 -20 12 -11 -3 -20 -1 -20 4 0 15 -17 10 -24 -7z"/>
<path d="M519 463 c-15 -4 -16 -9 -4 -55 8 -27 16 -52 19 -55 9 -9 26 8 26 27
0 12 10 21 29 25 35 8 55 29 47 50 -5 15 -75 20 -117 8z m77 -15 c6 -10 -20
-38 -37 -38 -12 0 -17 39 -5 44 20 8 35 6 42 -6z"/>
<path d="M672 451 c-10 -6 -11 -17 -5 -39 11 -43 34 -29 25 15 -5 23 -11 30
-20 24z"/>
<path d="M2368 430 c-5 -34 9 -51 23 -29 14 22 11 59 -5 59 -8 0 -16 -13 -18
-30z"/>
<path d="M2433 430 c-3 -11 -9 -20 -14 -20 -5 0 -6 -6 -3 -14 8 -20 86 -39 96
-23 17 26 8 57 -18 67 -38 15 -55 12 -61 -10z m57 -10 c0 -5 -6 -10 -14 -10
-8 0 -18 5 -21 10 -3 6 3 10 14 10 12 0 21 -4 21 -10z m-5 -30 c-3 -5 -12 -10
-20 -10 -8 0 -17 5 -20 10 -4 6 5 10 20 10 15 0 24 -4 20 -10z"/>
<path d="M1235 369 c-82 -5 -204 -15 -270 -22 l-120 -13 45 -13 c25 -7 59 -18
75 -25 175 -78 573 -111 815 -67 151 28 238 49 298 73 55 21 97 22 250 2 36
-5 52 -3 52 5 0 7 -19 11 -49 11 -27 0 -93 4 -147 10 -390 39 -725 53 -949 39z
m205 -28 c0 -8 -210 -3 -219 5 -2 2 46 4 107 4 62 0 112 -4 112 -9z m228 2
c-10 -2 -26 -2 -35 0 -10 3 -2 5 17 5 19 0 27 -2 18 -5z m-580 -10 c-10 -2
-26 -2 -35 0 -10 3 -2 5 17 5 19 0 27 -2 18 -5z m65 0 c-7 -2 -19 -2 -25 0 -7
3 -2 5 12 5 14 0 19 -2 13 -5z m364 1 c-3 -3 -12 -4 -19 -1 -8 3 -5 6 6 6 11
1 17 -2 13 -5z"/>
<path d="M673 323 c-29 -2 -53 -8 -53 -14 0 -11 24 -11 130 6 77 11 80 13 30
12 -30 0 -79 -2 -107 -4z"/>
<path d="M2949 293 l-34 -38 38 34 c20 19 37 36 37 38 0 8 -8 0 -41 -34z"/>
<path d="M455 220 c-63 -23 -54 -25 26 -4 34 9 79 14 100 12 20 -2 35 0 33 4
-9 14 -108 7 -159 -12z"/>
<path d="M2498 173 c6 -2 18 -2 25 0 6 3 1 5 -13 5 -14 0 -19 -2 -12 -5z"/>
<path d="M558 163 c7 -3 16 -2 19 1 4 3 -2 6 -13 5 -11 0 -14 -3 -6 -6z"/>
<path d="M2423 163 c9 -2 23 -2 30 0 6 3 -1 5 -18 5 -16 0 -22 -2 -12 -5z"/>
<path d="M2839 51 c13 -12 28 -21 34 -21 12 0 11 0 -28 24 l-30 17 24 -20z"/>
<path d="M140 45 c-14 -8 -20 -14 -14 -15 5 0 19 7 30 15 24 18 16 19 -16 0z"/>
</g>
</svg>
